<?xml version="1.0" standalone="no"?>
<svg xmlns="http://www.w3.org/2000/svg" viewBox="0 0 188.592 29" width="188.592" height="29"><g fill="#fa5fb2" color="#fa5fb2" transform="translate(0, 0) scale(0.29)"><svg width="100.0" height="100.0" x="0.0" y="0.0" viewBox="0 0 100 100"><path d="M44.5,55.6c0,0-0.1,0-0.3-0.1c-0.2-0.1-0.5-0.2-0.8-0.3c-0.2-0.1-0.3-0.1-0.5-0.2c-0.2-0.1-0.4-0.1-0.6-0.2  c-0.2-0.1-0.5-0.1-0.7-0.2c-0.3-0.1-0.5-0.1-0.8-0.2c-0.6-0.1-1.2-0.3-1.9-0.4c-0.7-0.1-1.4-0.2-2.2-0.2c-0.8-0.1-1.5-0.1-2.3-0.1  c-0.4,0-0.8,0-1.2,0c-0.4,0-0.8,0-1.2,0.1c-0.8,0.1-1.6,0.1-2.4,0.2c-0.4,0.1-0.8,0.1-1.2,0.2c-0.2,0-0.4,0.1-0.6,0.1l-0.1,0  c0,0,0,0,0,0l0,0l0,0l0,0l-0.1,0l-0.3,0.1c-0.4,0.1-0.8,0.2-1.1,0.3c-0.4,0.1-0.7,0.2-1,0.3c-0.7,0.2-1.3,0.4-1.9,0.7  c-0.3,0.1-0.6,0.2-0.8,0.3c-0.3,0.1-0.5,0.2-0.7,0.3c-0.5,0.2-0.8,0.4-1.2,0.6c-0.3,0.2-0.6,0.3-0.7,0.4c-0.2,0.1-0.2,0.2-0.2,0.2  c-0.1,0.1-0.2,0-0.2,0c0-0.1,0-0.2,0-0.2l0,0c0,0,0.1-0.1,0.2-0.2c0.2-0.1,0.4-0.3,0.7-0.5c0.3-0.2,0.7-0.5,1.1-0.7  c0.2-0.1,0.5-0.3,0.7-0.4c0.3-0.1,0.5-0.3,0.8-0.4c0.6-0.3,1.2-0.6,1.9-0.9c0.3-0.1,0.7-0.3,1.1-0.4c0.4-0.1,0.7-0.2,1.1-0.4  l0.3-0.1l0.1,0l0,0l0,0l0,0l0,0l0.1,0c0.2-0.1,0.4-0.1,0.6-0.2c0.4-0.1,0.8-0.2,1.2-0.3c0.8-0.2,1.7-0.4,2.5-0.5  c0.4-0.1,0.8-0.1,1.3-0.2c0.4,0,0.8-0.1,1.3-0.1c0.8-0.1,1.7-0.1,2.5-0.2c0.8,0,1.6,0,2.4,0c0.8,0,1.5,0.1,2.1,0.2  c0.3,0,0.6,0.1,0.9,0.1c0.3,0.1,0.6,0.1,0.8,0.2c0.3,0,0.5,0.1,0.8,0.2c0.2,0.1,0.5,0.1,0.7,0.2c0.4,0.1,0.6,0.2,0.8,0.2  c0.2,0.1,0.3,0.1,0.3,0.1c0.8,0.2,1.3,1.1,1,1.9c-0.2,0.8-1.1,1.3-1.9,1C44.6,55.7,44.6,55.7,44.5,55.6z"></path><path d="M42.5,61.6c0,0-0.1,0-0.2,0.1c-0.1,0-0.3,0.1-0.5,0.2c-0.2,0.1-0.4,0.2-0.7,0.4c-0.3,0.2-0.6,0.4-1,0.6  c-0.8,0.5-1.8,0.8-3,1C36.6,63.9,36,64,35.4,64L35,64c-0.2,0-0.3,0-0.4,0l-0.5,0l-0.5,0c-0.6-0.1-1.2-0.2-1.7-0.3  c-0.6-0.1-1.1-0.3-1.6-0.5c-0.5-0.2-1-0.3-1.5-0.5c-0.5-0.2-0.9-0.4-1.3-0.6c-0.8-0.4-1.4-0.7-1.8-1c-0.4-0.3-0.7-0.4-0.7-0.4  c-0.1-0.1-0.2-0.3-0.1-0.4c0.1-0.1,0.2-0.1,0.3-0.1l0,0c0,0,0.3,0.1,0.7,0.2c0.5,0.1,1.1,0.4,1.9,0.6c0.4,0.1,0.8,0.2,1.3,0.4  c0.5,0.1,0.9,0.2,1.4,0.4c1,0.2,2.1,0.4,3.1,0.5l0.4,0l0.4,0c0.1,0,0.3,0,0.4,0l0.4,0c0.5,0,1,0,1.5-0.1c0.5-0.1,1-0.1,1.4-0.2  c0.4-0.1,0.8-0.2,1.2-0.3c0.4-0.1,0.7-0.3,1.1-0.4c0.3-0.1,0.7-0.2,1-0.2c0.3,0,0.5,0,0.7,0c0.1,0,0.1,0,0.2,0c0,0,0.1,0,0.1,0  c0.2,0,0.3,0.2,0.2,0.3C42.6,61.5,42.6,61.5,42.5,61.6z"></path><path d="M54.1,52.8c0,0,0.1,0,0.3-0.1c0.2-0.1,0.5-0.1,0.8-0.2c0.2,0,0.4-0.1,0.7-0.2c0.2-0.1,0.5-0.1,0.8-0.2  c0.3-0.1,0.5-0.1,0.8-0.2c0.3,0,0.6-0.1,0.9-0.1c0.7-0.1,1.4-0.1,2.1-0.2c0.8,0,1.5,0,2.4,0c0.8,0,1.6,0.1,2.5,0.2  c0.4,0,0.8,0.1,1.3,0.1c0.4,0.1,0.8,0.1,1.3,0.2c0.8,0.1,1.7,0.3,2.5,0.5c0.4,0.1,0.8,0.2,1.2,0.3c0.2,0.1,0.4,0.1,0.6,0.2l0.1,0  l0,0l0,0l0,0l0,0l0.1,0l0.3,0.1c0.4,0.1,0.7,0.2,1.1,0.4c0.4,0.1,0.7,0.3,1.1,0.4c0.7,0.3,1.3,0.6,1.9,0.9c0.3,0.1,0.5,0.3,0.8,0.4  c0.3,0.1,0.5,0.3,0.7,0.4c0.4,0.3,0.8,0.5,1.1,0.7c0.3,0.2,0.5,0.4,0.7,0.5c0.2,0.1,0.2,0.2,0.2,0.2l0,0c0.1,0.1,0.1,0.2,0,0.2  c-0.1,0.1-0.2,0.1-0.2,0c0,0-0.1-0.1-0.2-0.2c-0.2-0.1-0.4-0.2-0.7-0.4c-0.3-0.2-0.7-0.4-1.2-0.6c-0.2-0.1-0.5-0.2-0.7-0.3  c-0.3-0.1-0.5-0.2-0.8-0.3c-0.6-0.2-1.2-0.5-1.9-0.7c-0.3-0.1-0.7-0.2-1-0.3c-0.4-0.1-0.7-0.2-1.1-0.3l-0.3-0.1l-0.1,0l0,0l0,0l0,0  c0,0,0,0,0,0l-0.1,0c-0.2,0-0.4-0.1-0.6-0.1c-0.4-0.1-0.8-0.1-1.2-0.2c-0.8-0.1-1.6-0.2-2.4-0.2c-0.4,0-0.8,0-1.2-0.1  c-0.4,0-0.8,0-1.2,0c-0.8,0-1.6,0-2.3,0.1c-0.8,0.1-1.5,0.1-2.2,0.2c-0.7,0.1-1.3,0.2-1.9,0.4c-0.3,0.1-0.6,0.1-0.8,0.2  c-0.3,0.1-0.5,0.2-0.7,0.2c-0.2,0.1-0.4,0.1-0.6,0.2c-0.2,0.1-0.4,0.1-0.5,0.2c-0.3,0.1-0.6,0.2-0.8,0.3c-0.2,0.1-0.3,0.1-0.3,0.1  c-0.8,0.3-1.7,0-2-0.8c-0.3-0.8,0-1.7,0.8-2C54,52.8,54.1,52.8,54.1,52.8z"></path><path d="M57.2,61C57.2,61,57.2,61,57.2,61c0.1,0,0.1,0,0.2,0c0.2,0,0.4,0,0.7,0c0.3,0,0.6,0.1,0.9,0.3c0.3,0.1,0.7,0.3,1.1,0.4  c0.4,0.1,0.8,0.2,1.2,0.3c0.4,0.1,0.9,0.2,1.4,0.2c0.5,0.1,1,0.1,1.6,0.1l0.4,0c0.1,0,0.3,0,0.4,0c0.3,0,0.5,0,0.8,0  c0.5-0.1,1.1-0.1,1.6-0.2c0.5-0.1,1-0.2,1.6-0.3c1-0.2,1.9-0.5,2.7-0.7c0.8-0.2,1.5-0.5,1.9-0.6c0.5-0.2,0.7-0.2,0.7-0.2l0,0  c0.1,0,0.3,0,0.4,0.2c0,0.1,0,0.3-0.1,0.3c0,0-0.2,0.2-0.7,0.4c-0.4,0.2-1.1,0.6-1.9,0.9c-0.8,0.4-1.7,0.7-2.8,1.1  c-0.5,0.2-1.1,0.3-1.6,0.4c-0.6,0.1-1.1,0.2-1.7,0.3c-0.3,0-0.6,0.1-0.9,0.1c-0.1,0-0.3,0-0.4,0l-0.4,0c-0.6,0-1.1,0-1.7-0.1  c-0.6-0.1-1.1-0.2-1.6-0.4c-0.5-0.2-1-0.4-1.4-0.6c-0.4-0.2-0.7-0.4-1-0.6c-0.3-0.2-0.5-0.3-0.7-0.4c-0.2-0.1-0.4-0.1-0.5-0.2  c-0.1,0-0.2,0-0.2,0c-0.2,0-0.3-0.2-0.2-0.3C57,61.1,57.1,61,57.2,61z"></path><g><path d="M49,10.7c-30.2,0-33,32.1-31.2,40.6c5.2-3.1,18.7-6.9,32.5-7c13.8-0.1,25.2,3.4,31.5,6.4C84.7,43.4,79.2,10.7,49,10.7z    M34.1,20c0.8,0,1.5,0.4,2,1l1.7-2.6l0.5-0.7l0.4,0.8l2.4,5l2.6-5.2l0.8-1.5l0.8,1.6l2.4,4.8l2.3-4.8l0.7-1.5l0.7,1.5l2.3,5.2   l2.5-4.7l0.5-0.9l0.4,0.9l2.4,4.8l1.2-2l0.1,0.1c0,0,0,0,0,0c0-1.3,1.1-2.4,2.4-2.4c1.3,0,2.4,1.1,2.4,2.4c0,1.3-1.1,2.4-2.4,2.4   c-0.9,0-1.6-0.5-2-1.2l-1.3,2.1l-0.5,0.8l-0.4-0.8l-2.4-4.7l-2.5,4.8l-0.4,0.8l-0.5-0.8l-2.5-4.5L48.2,25l-0.6,1.1L47,25l-2.6-4.6   l-2.9,4.5L41,25.7l-0.4-0.8l-2.4-5.2l-1.7,2.5c0,0,0,0.1,0,0.1c0,1.3-1.1,2.4-2.4,2.4c-1.3,0-2.4-1.1-2.4-2.4   C31.8,21,32.8,20,34.1,20z M77.3,38.9c-1.1,0-2.1-0.8-2.3-1.9l-2.3-3.6l-3.2,7.2L69,41.6l-0.5-1.1l-3.1-7.1l-2.9,6.1l-0.5,1l-0.5-1   l-3.3-7.1l-2.6,5.9l-0.7,1.5l-0.8-1.4L50.5,32l-3.2,5.9l-0.9,1.6l-0.9-1.6L42,31.3l-4.3,8.3l-0.5,1l-0.4-1l-2.6-6.3l-3.4,7.4   l-0.5,1.2l-0.4-1.2l-2.5-7.4l-2.1,3.6c-0.1,1.2-1.1,2.1-2.3,2.1c-1.3,0-2.4-1.1-2.4-2.4c0-1.3,1.1-2.4,2.4-2.4c0.9,0,1.6,0.5,2,1.1   l2.1-3.6l0.6-1l0.4,1l2.5,7.2l3.3-7.3l0.5-1.1l0.4,1.1l2.7,6.4l4.2-8.1l0.4-0.7l0.5,0.7l3.8,6.5l3.3-6l0.9-1.6l0.9,1.6l3.7,6.8   l2.9-6.2l0.5-0.9l0.4,0.9l3.3,7.1l2.9-6.1l0.5-1l0.4,1l3.1,7l3.1-7l0.4-0.9L73,32l2.2,3.4c0.4-0.8,1.2-1.3,2.1-1.3   c1.3,0,2.4,1.1,2.4,2.4C79.7,37.8,78.6,38.9,77.3,38.9z"></path></g><path d="M45.8,72c0,0-0.1,0.1-0.1,0.1c0,0,0,0.1-0.1,0.1c0,0.1-0.1,0.1-0.1,0.2c0,0.1,0,0.3,0.1,0.4c0.1,0.1,0.2,0.2,0.3,0.3  c0.1,0.1,0.3,0.1,0.4,0l0,0l0.2-0.1l0.2,0.3c0.1,0.2,0.4,0.4,0.6,0.5c0.3,0.2,0.5,0.3,0.8,0.4c0.3,0.1,0.6,0.2,0.9,0.3  c0.3,0.1,0.6,0.1,0.9,0.1l0.1,0l0.1,0c0.1,0,0.1,0,0.2,0c0.1,0,0.3,0,0.4-0.1c0.3-0.1,0.6-0.2,0.9-0.3c0.3-0.1,0.5-0.3,0.8-0.4  c0.3-0.2,0.5-0.4,0.7-0.6l0.2-0.2l0.2,0.1l0,0c0.1,0,0.3,0,0.5-0.1c0.2-0.1,0.3-0.2,0.4-0.3c0.1-0.1,0.2-0.3,0.2-0.4  c0-0.1-0.1-0.2-0.2-0.3l0,0c-0.2-0.1-0.2-0.3-0.1-0.5c0.1-0.2,0.3-0.2,0.5-0.1c0.1,0.1,0.3,0.2,0.3,0.4c0.1,0.1,0.2,0.3,0.2,0.5  c0,0.4-0.1,0.7-0.3,0.9c-0.2,0.2-0.4,0.4-0.7,0.6c-0.3,0.1-0.6,0.2-0.9,0.1l0,0l0.4-0.1c-0.1,0.2-0.2,0.3-0.3,0.5  c-0.1,0.1-0.2,0.3-0.4,0.4c-0.3,0.3-0.6,0.5-0.9,0.7c-0.3,0.2-0.7,0.3-1,0.4c-0.2,0-0.4,0.1-0.6,0.1c-0.1,0-0.2,0-0.3,0l-0.1,0  c0,0,0,0-0.1,0l-0.1,0c-0.4,0-0.8-0.1-1.1-0.2c-0.4-0.1-0.7-0.2-1-0.4c-0.3-0.2-0.6-0.4-0.9-0.6c-0.1-0.1-0.3-0.3-0.4-0.4  c-0.1-0.2-0.2-0.3-0.3-0.6l0.4,0.2l0,0c-0.3,0.1-0.7,0.1-0.9-0.1c-0.3-0.1-0.5-0.3-0.6-0.6c-0.1-0.3-0.2-0.6-0.2-0.9  c0-0.1,0.1-0.3,0.1-0.4c0-0.1,0.1-0.1,0.1-0.2c0-0.1,0.1-0.1,0.1-0.2c0.1-0.2,0.3-0.2,0.5-0.1C45.8,71.6,45.9,71.8,45.8,72L45.8,72  L45.8,72z"></path><path d="M27.7,73.4c0,0,0.6,0.6,1.7,1.5c1.1,1,2.7,2.3,4.7,3.8c2,1.5,4.4,3.2,7,4.7c1.3,0.8,2.8,1.5,4.3,2c0.4,0.2,0.8,0.3,1.1,0.4  c0.4,0.1,0.8,0.2,1.2,0.3c0.8,0.2,1.6,0.3,2.3,0.3c0.4,0,0.8,0,1.2-0.1c0.4,0,0.8-0.1,1.2-0.2c0.8-0.2,1.6-0.4,2.3-0.7  c1.5-0.6,2.9-1.3,4.3-2c2.7-1.5,5.1-3.2,7.1-4.7c2-1.5,3.6-2.8,4.7-3.8c1.1-0.9,1.7-1.5,1.7-1.5c0.1-0.1,0.3-0.1,0.3,0  c0.1,0.1,0.1,0.2,0,0.3c0,0-0.6,0.6-1.7,1.6c-1.1,1-2.6,2.4-4.6,3.9c-1,0.8-2.1,1.6-3.2,2.4c-1.2,0.8-2.4,1.7-3.8,2.4  c-1.4,0.8-2.8,1.5-4.4,2.1c-0.8,0.3-1.6,0.5-2.4,0.8c-0.8,0.2-1.8,0.3-2.6,0.3c-1.8,0-3.5-0.4-5-1c-1.6-0.6-3-1.3-4.4-2.1  c-1.4-0.8-2.6-1.6-3.8-2.5c-1.2-0.8-2.3-1.7-3.2-2.4c-2-1.6-3.5-3-4.6-4c-1.1-1-1.6-1.6-1.6-1.6l0,0c-0.1-0.1-0.1-0.3,0-0.3  C27.5,73.3,27.6,73.3,27.7,73.4z"></path><g><path d="M49.8,80.8l-2.5-0.3c-0.3,0-0.5-0.3-0.4-0.6c0-0.3,0.3-0.5,0.6-0.4l2.4,0.3l2.4-0.3c0.3,0,0.5,0.2,0.6,0.4   c0,0.3-0.2,0.5-0.4,0.6L49.8,80.8z"></path></g></svg></g><line x1="41" y1="1" x2="41" y2="28" stroke="#2e7d32" stroke-linecap="round"></line><path fill="#2e7d32" fill-rule="nonzero" d="M3.72 1.99Q3.65 1.70 3.65 1.25Q3.65 0.79 3.67 0.65L3.67 0.65Q5.78 0.38 6.82 0.38Q7.85 0.38 8.57 0.62L8.57 0.62Q9.14 5.14 12.58 14.57L12.58 14.57L13.46 14.64Q13.51 15.17 13.51 15.37Q13.51 15.58 13.44 15.98L13.44 15.98Q12.77 15.96 11.35 15.96Q9.94 15.96 9.38 15.98L9.38 15.98Q9.31 15.62 9.31 15.30Q9.31 14.98 9.36 14.64L9.36 14.64L10.20 14.57Q10.08 13.99 9.82 12.90Q9.55 11.81 9.53 11.69L9.53 11.69Q8.16 11.62 6.56 11.62Q4.97 11.62 3.58 11.71L3.58 11.71L2.90 14.57L3.82 14.64Q3.86 15.17 3.86 15.37Q3.86 15.58 3.79 15.98L3.79 15.98Q3.22 15.96 1.91 15.96Q0.60 15.96 0.07 15.98L0.07 15.98Q0 15.62 0 15.30Q0 14.98 0.05 14.64L0.05 14.64L0.89 14.57Q3.77 6.67 4.68 2.06L4.68 2.06L3.72 1.99ZM4.01 10.03L4.01 10.03Q4.82 10.06 6.46 10.06Q8.09 10.06 9.10 9.98L9.10 9.98Q7.97 5.71 6.72 2.09L6.72 2.09L6.58 2.09Q5.16 5.52 4.01 10.03ZM15.46 12.86L15.46 12.86L15.48 10.30Q15.48 8.16 15.29 6.19L15.29 6.19L14.40 6.12Q14.33 5.74 14.33 5.33Q14.33 4.92 14.35 4.78L14.35 4.78Q15.58 4.75 17.33 4.56L17.33 4.56L17.45 4.68Q17.23 6.10 17.23 9.74L17.23 9.74L17.23 10.87Q17.23 12.89 17.60 13.74Q17.98 14.59 18.86 14.59L18.86 14.59Q20.11 14.59 21.58 13.13L21.58 13.13Q21.62 12.58 21.62 10.99L21.62 10.99L21.62 10.30Q21.62 8.16 21.43 6.19L21.43 6.19L20.54 6.12Q20.47 5.71 20.47 5.32Q20.47 4.92 20.50 4.78L20.50 4.78Q21.72 4.75 23.47 4.56L23.47 4.56L23.59 4.68Q23.38 6.10 23.38 9.74L23.38 9.74L23.38 10.51Q23.38 12.48 23.59 14.35L23.59 14.35L24.48 14.40Q24.53 14.93 24.53 15.18Q24.53 15.43 24.46 15.79L24.46 15.79Q23.52 15.84 21.84 16.03L21.84 16.03Q21.65 15.60 21.55 14.83L21.55 14.83Q19.75 16.32 18.24 16.32Q16.73 16.32 16.09 15.48Q15.46 14.64 15.46 12.86ZM30.82 4.49L30.82 4.49Q31.10 4.49 31.25 4.51L31.25 4.51Q32.76 2.21 34.54 2.21L34.54 2.21Q36.10 2.21 36.10 3.72L36.10 3.72Q36.10 4.78 35.05 4.78Q34.01 4.78 33.84 3.70L33.84 3.70Q33.14 3.70 32.54 4.73L32.54 4.73Q34.87 5.50 34.87 8.57L34.87 8.57Q34.87 10.44 34.13 11.69L34.13 11.69Q33.29 13.08 30.82 13.08L30.82 13.08Q29.78 13.08 29.14 12.84L29.14 12.84Q28.63 13.73 28.39 14.78L28.39 14.78Q28.80 14.86 29.26 14.86Q29.71 14.86 31.08 14.69Q32.45 14.52 33.05 14.52L33.05 14.52Q34.30 14.52 35.06 15.14Q35.83 15.77 35.83 17.06Q35.83 18.36 34.99 19.32L34.99 19.32Q33.53 21 30.43 21L30.43 21Q28.34 21 27.24 20.47Q26.14 19.94 26.14 18.50L26.14 18.50Q26.14 17.45 27.26 16.32L27.26 16.32Q26.81 15.98 26.81 15.38L26.81 15.38Q26.81 14.11 28.03 12.26L28.03 12.26Q26.76 11.23 26.76 8.57L26.76 8.57Q26.76 4.49 30.82 4.49ZM28.70 8.59Q28.70 11.42 30.82 11.42Q32.93 11.42 32.93 8.59Q32.93 5.76 30.82 5.76Q28.70 5.76 28.70 8.59ZM28.08 18.14L28.08 18.14Q28.08 19.68 30.89 19.68L30.89 19.68Q32.09 19.68 33.04 19.15Q33.98 18.62 33.98 17.57L33.98 17.57Q33.98 16.39 32.71 16.39L32.71 16.39Q32.09 16.39 30.74 16.55Q29.40 16.70 28.58 16.70L28.58 16.70L28.39 16.70Q28.08 17.38 28.08 18.14ZM52.85 7.92L52.85 7.92L52.82 9.89Q52.82 12.41 53.11 14.57L53.11 14.57L53.98 14.64Q54.02 14.86 54.02 15.22Q54.02 15.58 53.95 15.98L53.95 15.98Q53.28 15.96 51.94 15.96Q50.59 15.96 50.02 15.98L50.02 15.98Q49.94 15.62 49.94 15.30Q49.94 14.98 49.99 14.64L49.99 14.64L50.81 14.57Q51 11.76 51 9.76Q51 7.75 50.64 6.89Q50.28 6.02 49.44 6.02L49.44 6.02Q48.24 6.02 46.87 7.61L46.87 7.61L46.85 9.89Q46.85 12.41 47.14 14.57L47.14 14.57L47.98 14.64Q48.02 15.02 48.02 15.30Q48.02 15.58 47.95 15.98L47.95 15.98Q47.28 15.96 45.94 15.96Q44.59 15.96 44.02 15.98L44.02 15.98Q43.94 15.62 43.94 15.30Q43.94 14.98 43.99 14.64L43.99 14.64L44.83 14.57Q45.02 11.76 45.02 9.76Q45.02 7.75 44.66 6.89Q44.30 6.02 43.46 6.02L43.46 6.02Q42.24 6.02 40.90 7.58L40.90 7.58Q40.87 8.21 40.87 10.50Q40.87 12.79 41.09 14.57L41.09 14.57L41.98 14.64Q42.02 15.17 42.02 15.37Q42.02 15.58 41.95 15.98L41.95 15.98Q41.28 15.96 39.98 15.96Q38.69 15.96 38.09 15.98L38.09 15.98Q38.02 15.62 38.02 15.30Q38.02 14.98 38.06 14.64L38.06 14.64L38.90 14.57Q39.12 12.17 39.12 10.16Q39.12 8.16 38.93 6.19L38.93 6.19L38.04 6.12Q37.97 5.71 37.97 5.32Q37.97 4.92 37.99 4.78L37.99 4.78Q39.22 4.75 40.97 4.56L40.97 4.56L41.09 4.68Q41.02 5.18 40.94 6.10L40.94 6.10Q41.64 5.38 42.55 4.93Q43.46 4.49 44.26 4.49L44.26 4.49Q46.22 4.49 46.73 6.34L46.73 6.34Q47.42 5.52 48.40 5.00Q49.37 4.49 50.23 4.49L50.23 4.49Q51.58 4.49 52.21 5.32Q52.85 6.14 52.85 7.92ZM60.26 10.63L60.26 10.63Q59.09 10.63 58.08 10.51L58.08 10.51Q58.13 14.59 60.79 14.59L60.79 14.59Q62.14 14.59 63.77 13.10L63.77 13.10Q64.46 13.82 64.66 15L64.66 15Q62.69 16.32 60.48 16.32Q58.27 16.32 57.19 14.80Q56.11 13.27 56.11 10.32Q56.11 7.37 57.32 5.93Q58.54 4.49 60.77 4.49L60.77 4.49Q62.42 4.49 63.50 5.50Q64.58 6.50 64.60 7.97Q64.61 9.43 64.34 10.06L64.34 10.06Q62.54 10.63 60.26 10.63ZM60.60 5.83L60.60 5.83Q58.37 5.83 58.10 9.12L58.10 9.12Q59.18 9.24 60.48 9.24Q61.78 9.24 62.50 9L62.50 9Q62.59 8.40 62.59 8.11L62.59 8.11Q62.59 7.06 62.05 6.44Q61.51 5.83 60.60 5.83ZM76.49 7.56L76.49 7.56L76.46 9.89Q76.46 12.41 76.75 14.57L76.75 14.57L77.59 14.64Q77.64 15.17 77.64 15.37Q77.64 15.58 77.57 15.98L77.57 15.98Q76.90 15.96 75.55 15.96Q74.21 15.96 73.63 15.98L73.63 15.98Q73.56 15.62 73.56 15.30Q73.56 14.98 73.61 14.64L73.61 14.64L74.45 14.57Q74.64 11.76 74.64 9.76Q74.64 7.75 74.24 6.89Q73.85 6.02 72.89 6.02L72.89 6.02Q71.59 6.02 70.03 7.58L70.03 7.58Q70.01 8.21 70.01 10.50Q70.01 12.79 70.22 14.57L70.22 14.57L71.11 14.64Q71.16 15.17 71.16 15.37Q71.16 15.58 71.09 15.98L71.09 15.98Q70.42 15.96 69.12 15.96Q67.82 15.96 67.22 15.98L67.22 15.98Q67.15 15.62 67.15 15.30Q67.15 14.98 67.20 14.64L67.20 14.64L68.04 14.57Q68.26 12.17 68.26 10.16Q68.26 8.16 68.06 6.19L68.06 6.19L67.18 6.12Q67.10 5.71 67.10 5.32Q67.10 4.92 67.13 4.78L67.13 4.78Q68.35 4.75 70.10 4.56L70.10 4.56L70.22 4.68Q70.18 4.97 70.08 6.12L70.08 6.12Q70.82 5.38 71.81 4.93Q72.79 4.49 73.66 4.49L73.66 4.49Q76.49 4.49 76.49 7.56ZM80.45 12.07L80.45 12.07Q80.45 12.07 80.50 6.72L80.50 6.72Q80.50 6.36 80.47 6.17L80.47 6.17Q79.46 6.17 79.03 6.19L79.03 6.19Q78.89 5.81 78.89 5.44Q78.89 5.06 78.94 4.87L78.94 4.87L80.40 4.87L80.28 3.10Q80.88 2.90 81.54 2.90Q82.20 2.90 82.63 3L82.63 3L82.42 4.85Q83.74 4.82 85.08 4.70L85.08 4.70Q85.22 5.02 85.22 5.39Q85.22 5.76 85.13 6.29L85.13 6.29Q84.24 6.24 82.32 6.19L82.32 6.19Q82.27 6.67 82.27 7.61L82.27 7.61L82.27 12.48Q82.27 13.10 82.33 13.50Q82.39 13.90 82.64 14.22Q82.90 14.54 83.38 14.54L83.38 14.54Q84.43 14.54 85.39 13.80L85.39 13.80Q85.90 14.52 85.90 15.74L85.90 15.74Q84.58 16.32 83.60 16.32Q82.63 16.32 82.06 16.07Q81.48 15.82 81.17 15.47Q80.86 15.12 80.69 14.50L80.69 14.50Q80.45 13.61 80.45 12.07ZM87.65 14.57L88.61 14.50Q88.82 12.05 88.82 8.00Q88.82 3.96 88.58 2.06L88.58 2.06L87.65 1.99Q87.58 1.70 87.58 1.25Q87.58 0.79 87.60 0.65L87.60 0.65Q89.14 0.62 90.34 0.43Q91.54 0.24 92.88 0.24L92.88 0.24Q95.30 0.24 96.56 1.36Q97.82 2.47 97.82 4.73Q97.82 6.98 96.29 8.14L96.29 8.14Q98.86 9.17 98.86 11.81L98.86 11.81Q98.86 14.04 97.46 15.18Q96.07 16.32 93.36 16.32L93.36 16.32Q91.85 16.32 90.55 16.13L90.55 16.13Q88.27 15.96 87.60 15.91L87.60 15.91Q87.58 15.77 87.58 15.34Q87.58 14.90 87.65 14.57L87.65 14.57ZM92.02 7.03L92.02 7.03Q92.54 7.39 93.56 7.39Q94.58 7.39 95.16 6.71Q95.74 6.02 95.74 4.64Q95.74 3.26 94.97 2.44Q94.20 1.61 92.78 1.61L92.78 1.61Q91.90 1.61 90.82 2.04L90.82 2.04Q90.62 4.03 90.62 7.85Q90.62 11.66 90.82 14.11L90.82 14.11Q92.23 14.66 93.38 14.66L93.38 14.66Q96.77 14.66 96.77 11.81L96.77 11.81Q96.77 9.41 94.54 8.88L94.54 8.88Q93.82 9 93.13 9Q92.45 9 91.51 8.64L91.51 8.64Q91.51 7.54 92.02 7.03ZM100.68 14.64L101.52 14.57Q101.74 12.17 101.74 10.16Q101.74 8.16 101.54 6.19L101.54 6.19L100.66 6.12Q100.58 5.74 100.58 5.33Q100.58 4.92 100.61 4.78L100.61 4.78Q101.83 4.75 103.58 4.56L103.58 4.56L103.70 4.68Q103.68 4.82 103.56 6.10L103.56 6.10Q104.11 5.40 104.84 4.94Q105.58 4.49 106.28 4.49Q106.99 4.49 107.52 4.99Q108.05 5.50 108.05 6.31L108.05 6.31Q108.05 7.66 106.92 7.66L106.92 7.66Q106.27 7.66 105.89 7.24Q105.50 6.82 105.50 6.12L105.50 6.12Q105.46 6.10 105.34 6.10L105.34 6.10Q104.45 6.10 103.51 7.44L103.51 7.44Q103.49 8.11 103.49 10.45Q103.49 12.79 103.70 14.57L103.70 14.57L104.59 14.64Q104.64 15.17 104.64 15.37Q104.64 15.58 104.57 15.98L104.57 15.98Q103.90 15.96 102.60 15.96Q101.30 15.96 100.70 15.98L100.70 15.98Q100.63 15.62 100.63 15.30Q100.63 14.98 100.68 14.64L100.68 14.64ZM117.46 7.68L117.46 7.68L117.36 11.14Q117.36 12.77 117.55 14.33L117.55 14.33L118.44 14.40Q118.49 14.78 118.49 15.11Q118.49 15.43 118.42 15.79L118.42 15.79Q117.72 15.82 115.70 16.03L115.70 16.03Q115.54 15.58 115.44 14.90L115.44 14.90Q113.57 16.32 112.21 16.32Q110.86 16.32 110.10 15.44Q109.34 14.57 109.34 12.95Q109.34 11.33 110.36 10.39Q111.38 9.46 112.93 9.46Q114.48 9.46 115.58 10.03L115.58 10.03Q115.61 9.77 115.61 9.17L115.61 9.17Q115.61 7.39 115.12 6.61Q114.62 5.83 113.62 5.83Q112.61 5.83 112.15 6.22L112.15 6.22Q112.34 6.60 112.34 7.18Q112.34 7.75 111.97 8.17Q111.60 8.59 110.93 8.59L110.93 8.59Q109.80 8.59 109.80 7.26Q109.80 5.93 110.81 5.21Q111.82 4.49 113.64 4.49Q115.46 4.49 116.46 5.34Q117.46 6.19 117.46 7.68ZM115.49 11.54L115.49 11.54Q114.50 10.70 113.38 10.70L113.38 10.70Q111.22 10.70 111.22 12.62L111.22 12.62Q111.22 14.59 112.92 14.59L112.92 14.59Q113.54 14.59 114.25 14.27Q114.96 13.94 115.37 13.46L115.37 13.46Q115.49 12.02 115.49 11.54ZM120.84 14.64L121.68 14.57Q121.90 12.22 121.90 10.26Q121.90 8.30 121.70 6.19L121.70 6.19L120.82 6.12Q120.74 5.71 120.74 5.34Q120.74 4.97 120.77 4.78L120.77 4.78Q122.16 4.73 123.74 4.56L123.74 4.56L123.86 4.68Q123.65 6.10 123.65 9.43Q123.65 12.77 123.86 14.57L123.86 14.57L124.75 14.64Q124.80 15.02 124.80 15.30Q124.80 15.58 124.73 15.98L124.73 15.98Q123.89 15.96 122.78 15.96Q121.68 15.96 120.86 15.98L120.86 15.98Q120.79 15.62 120.79 15.24Q120.79 14.86 120.84 14.64L120.84 14.64ZM124.10 1.25L124.10 1.25Q124.10 2.74 122.57 2.74L122.57 2.74Q121.37 2.74 121.37 1.51L121.37 1.51Q121.37 0 122.90 0L122.90 0Q124.10 0 124.10 1.25ZM136.44 7.56L136.44 7.56L136.42 9.89Q136.42 12.41 136.70 14.57L136.70 14.57L137.54 14.64Q137.59 15.17 137.59 15.37Q137.59 15.58 137.52 15.98L137.52 15.98Q136.85 15.96 135.50 15.96Q134.16 15.96 133.58 15.98L133.58 15.98Q133.51 15.62 133.51 15.30Q133.51 14.98 133.56 14.64L133.56 14.64L134.40 14.57Q134.59 11.76 134.59 9.76Q134.59 7.75 134.20 6.89Q133.80 6.02 132.84 6.02L132.84 6.02Q131.54 6.02 129.98 7.58L129.98 7.58Q129.96 8.21 129.96 10.50Q129.96 12.79 130.18 14.57L130.18 14.57L131.06 14.64Q131.11 15.17 131.11 15.37Q131.11 15.58 131.04 15.98L131.04 15.98Q130.37 15.96 129.07 15.96Q127.78 15.96 127.18 15.98L127.18 15.98Q127.10 15.62 127.10 15.30Q127.10 14.98 127.15 14.64L127.15 14.64L127.99 14.57Q128.21 12.17 128.21 10.16Q128.21 8.16 128.02 6.19L128.02 6.19L127.13 6.12Q127.06 5.71 127.06 5.32Q127.06 4.92 127.08 4.78L127.08 4.78Q128.30 4.75 130.06 4.56L130.06 4.56L130.18 4.68Q130.13 4.97 130.03 6.12L130.03 6.12Q130.78 5.38 131.76 4.93Q132.74 4.49 133.61 4.49L133.61 4.49Q136.44 4.49 136.44 7.56Z" transform="translate(51, 6.52)"></path></svg>